<!DOCTYPE svg PUBLIC "-//W3C//DTD SVG 1.1//EN" "http://www.w3.org/Graphics/SVG/1.1/DTD/svg11.dtd">
<!-- Uploaded to: SVG Repo, www.svgrepo.com, Transformed by: SVG Repo Mixer Tools -->
<svg fill="#1786F9" height="64px" width="64px" version="1.1" id="Layer_1" xmlns="http://www.w3.org/2000/svg" xmlns:xlink="http://www.w3.org/1999/xlink" viewBox="0 0 512 512" xml:space="preserve">
<g id="SVGRepo_bgCarrier" stroke-width="0"/>
<g id="SVGRepo_tracerCarrier" stroke-linecap="round" stroke-linejoin="round"/>
<g id="SVGRepo_iconCarrier"> <g> <g> <g> <path d="M153.354,271.486H87.443c-13.133,0-23.816,10.683-23.816,23.816v29.092c0,13.133,10.683,23.816,23.816,23.816h65.911 c13.132,0,23.816-10.683,23.816-23.816v-29.092C177.17,282.169,166.486,271.486,153.354,271.486z M161.292,324.394 c0,4.378-3.561,7.939-7.939,7.939H87.443c-4.378,0-7.939-3.561-7.939-7.939v-29.092c0-4.378,3.561-7.939,7.939-7.939h65.911 c4.378,0,7.939,3.561,7.939,7.939V324.394z"/> <path d="M120.397,90.271c-37.105,0-67.292,30.187-67.292,67.291c0,37.105,30.187,67.292,67.292,67.292 c37.105,0,67.291-30.187,67.291-67.292C187.689,120.458,157.502,90.271,120.397,90.271z M166,133.859 c-0.458-0.196-0.933-0.369-1.425-0.514l-19.935-5.877c-0.836-0.251-2.675-1.587-3.172-2.304l-11.749-17.144 c-0.284-0.414-0.586-0.803-0.906-1.171C145.003,109.526,158.657,119.791,166,133.859z M111.982,106.848 c-0.319,0.367-0.622,0.758-0.905,1.171l-11.749,17.143c-0.497,0.719-2.335,2.055-3.172,2.305l-19.934,5.877 c-0.492,0.145-0.967,0.32-1.426,0.514C82.139,119.791,95.792,109.526,111.982,106.848z M83.844,193.674 c-9.18-9.291-14.861-22.05-14.861-36.113c0-2.654,0.202-5.262,0.592-7.807c0.266,0.45,0.556,0.892,0.884,1.319l12.674,16.472 c0.529,0.694,1.232,2.855,1.212,3.729l-0.572,20.778C83.758,192.602,83.791,193.142,83.844,193.674z M120.397,208.976 c-8.322,0-16.181-2-23.143-5.525c0.536-0.115,1.07-0.256,1.599-0.445l19.584-6.964c0.162-0.057,0.869-0.219,1.959-0.219 c1.09,0,1.797,0.162,1.96,0.219l19.583,6.964c0.529,0.188,1.063,0.329,1.599,0.445 C136.578,206.975,128.719,208.976,120.397,208.976z M145.078,157.863c-2.773,3.605-4.623,9.298-4.5,13.847l0.387,14.099 l-13.287-4.724c-2.642-0.94-5.418-1.138-7.281-1.138s-4.639,0.198-7.28,1.137l-13.29,4.725l0.387-14.098 c0.126-4.547-1.724-10.242-4.498-13.848l-8.601-11.177l13.527-3.988c4.364-1.286,9.208-4.805,11.78-8.559l7.974-11.634 l7.973,11.635c2.572,3.752,7.416,7.272,11.779,8.558l13.528,3.988L145.078,157.863z M171.22,149.755 c0.39,2.546,0.592,5.154,0.592,7.806c0,14.063-5.68,26.821-14.861,36.112c0.053-0.534,0.086-1.073,0.07-1.624l-0.572-20.774 c-0.02-0.874,0.683-3.037,1.213-3.731l12.674-16.473C170.664,150.645,170.954,150.204,171.22,149.755z"/> <path d="M499.786,411.142H472.55v-33.325c14.352-7.461,24.184-22.462,24.184-39.725c0-17.431-12.977-66.652-36.812-75.923V189.76 h5.993c10.213,0,18.523-8.309,18.523-18.523v-35.841c0-10.213-8.31-18.523-18.523-18.523H208.591V79.649 c0-10.213-8.31-18.523-18.523-18.523H50.726c-10.213,0-18.523,8.31-18.523,18.523v331.493H12.214 C5.479,411.142,0,416.621,0,423.357v15.302c0,6.735,5.479,12.215,12.214,12.215h487.573c6.735,0,12.214-5.48,12.214-12.215 v-15.302C512,416.621,506.521,411.142,499.786,411.142z M470.77,298.967c6.621,14.746,10.085,30.844,10.085,39.125 c0,15.922-12.953,28.873-28.873,28.873c-15.922,0-28.874-12.953-28.874-28.873c0-8.282,3.464-24.38,10.085-39.124 c7.439-16.565,14.771-22.443,18.789-22.443C456,276.525,463.331,282.403,470.77,298.967z M456.671,382.596v28.546h-9.379v-28.546 c1.542,0.161,3.107,0.247,4.69,0.247C453.566,382.843,455.13,382.757,456.671,382.596z M208.591,132.749h257.322 c1.434,0,2.646,1.212,2.646,2.646v35.841c0,1.434-1.212,2.646-2.646,2.646H208.591V132.749z M208.591,189.759h235.451v72.409 c-23.836,9.271-36.813,58.492-36.813,75.923c0,17.264,9.832,32.264,24.185,39.725v33.324h-35.151v-80.635 c0-4.384-3.554-7.939-7.939-7.939H264.31c-4.384,0-7.939,3.554-7.939,7.939v80.635h-47.78V189.759z M380.387,338.446v72.696 h-46.13v-72.696H380.387z M318.38,338.446v72.696h-46.131v-72.696H318.38z M48.08,79.649c0-1.434,1.212-2.646,2.646-2.646 h139.343c1.434,0,2.646,1.212,2.646,2.646v331.493H48.08V79.649z M414.209,434.997H15.877v-7.978h398.331V434.997z M496.123,434.997h-66.037v-7.978h66.037V434.997z"/> <path d="M428.492,260.317v-20.515c0-13.133-10.683-23.816-23.816-23.816H247.958c-13.133,0-23.816,10.683-23.816,23.816v20.515 c0,13.133,10.683,23.816,23.816,23.816h156.718C417.808,284.133,428.492,273.449,428.492,260.317z M318.38,268.256h-70.42 c-4.378,0-7.939-3.561-7.939-7.939v-20.515c0-4.378,3.561-7.939,7.939-7.939h70.42V268.256z M334.257,231.864h70.419 c4.378,0,7.939,3.561,7.939,7.939v20.515c0,4.378-3.561,7.939-7.939,7.939h-70.419V231.864z"/> </g> </g> </g> </g>
</svg>