<!DOCTYPE svg PUBLIC "-//W3C//DTD SVG 1.1//EN" "http://www.w3.org/Graphics/SVG/1.1/DTD/svg11.dtd">
<!-- Uploaded to: SVG Repo, www.svgrepo.com, Transformed by: SVG Repo Mixer Tools -->
<svg fill="#000000" width="64px" height="64px" viewBox="0 0 24 24" xmlns="http://www.w3.org/2000/svg">
<g id="SVGRepo_bgCarrier" stroke-width="0"/>
<g id="SVGRepo_tracerCarrier" stroke-linecap="round" stroke-linejoin="round"/>
<g id="SVGRepo_iconCarrier">
<path d="M4,23H20a1,1,0,0,0,1-1V6a1,1,0,0,0-.293-.707l-4-4A1,1,0,0,0,16,1H4A1,1,0,0,0,3,2V22A1,1,0,0,0,4,23ZM5,3H15.586L19,6.414V21H5Zm8,13v1a1,1,0,0,1-2,0V16a1,1,0,0,1,2,0Zm1.954-7.429a3.142,3.142,0,0,1-1.789,3.421.4.4,0,0,0-.165.359V13a1,1,0,0,1-2,0v-.649a2.359,2.359,0,0,1,1.363-2.191A1.145,1.145,0,0,0,12.981,8.9a1.069,1.069,0,0,0-.8-.88.917.917,0,0,0-.775.2,1.155,1.155,0,0,0-.4.9,1,1,0,1,1-2,0,3.151,3.151,0,0,1,1.127-2.436,2.946,2.946,0,0,1,2.418-.632A3.085,3.085,0,0,1,14.954,8.571Z"/>
</g>
</svg>