<svg width="24" height="24" viewBox="0 0 24 24" fill="none" xmlns="http://www.w3.org/2000/svg">
<path d="M12.0002 16C11.8686 16.0008 11.7381 15.9755 11.6163 15.9258C11.4944 15.876 11.3836 15.8027 11.2902 15.71L5.29019 9.71C5.10188 9.5217 4.99609 9.2663 4.99609 9C4.99609 8.7337 5.10188 8.47831 5.29019 8.29C5.47849 8.1017 5.73388 7.99591 6.00019 7.99591C6.26649 7.99591 6.52188 8.1017 6.71019 8.29L12.0002 13.59L17.2902 8.3C17.4815 8.13618 17.7276 8.05057 17.9792 8.06029C18.2309 8.07001 18.4697 8.17434 18.6478 8.35244C18.8258 8.53053 18.9302 8.76927 18.9399 9.02095C18.9496 9.27263 18.864 9.5187 18.7002 9.71L12.7002 15.71C12.5139 15.8947 12.2625 15.9989 12.0002 16Z" fill="#141416"/>
</svg>
