<svg width="24" height="24" viewBox="0 0 24 24" fill="none" xmlns="http://www.w3.org/2000/svg">
<path d="M13.9993 16.5C14.1268 16.5001 14.2493 16.5489 14.342 16.6364C14.4347 16.7239 14.4904 16.8435 14.4979 16.9707C14.5054 17.0979 14.464 17.2232 14.3822 17.3209C14.303 17.4155 14.1917 17.4774 14.0699 17.4949L13.9849 17.5H10.0004C9.87298 17.4999 9.75041 17.4511 9.65774 17.3636C9.56507 17.2761 9.50931 17.1565 9.50184 17.0293C9.49437 16.9021 9.53576 16.7768 9.61755 16.6791C9.69675 16.5845 9.80803 16.5226 9.92988 16.5051L10.0148 16.5H13.9993ZM15.9993 11.5C15.9994 11.5 15.9995 11.5 15.9996 11.5C16.127 11.5002 16.2494 11.549 16.342 11.6364C16.4347 11.7239 16.4904 11.8435 16.4979 11.9707C16.5054 12.0979 16.464 12.2232 16.3822 12.3209C16.303 12.4155 16.1917 12.4774 16.0699 12.4949L15.9849 12.5L8.00042 12.5C8.00031 12.5 8.0002 12.5 8.00009 12.5C7.87277 12.4998 7.75033 12.451 7.65774 12.3636C7.56507 12.2761 7.50931 12.1565 7.50184 12.0293C7.49437 11.9021 7.53576 11.7768 7.61756 11.6791C7.69675 11.5845 7.80803 11.5226 7.92988 11.5051L8.01481 11.5L15.9993 11.5ZM18.9995 6.5C19.1269 6.5002 19.2494 6.54899 19.342 6.63642C19.4347 6.72391 19.4904 6.84348 19.4979 6.9707C19.5054 7.09792 19.464 7.22319 19.3822 7.32092C19.303 7.41553 19.1917 7.47742 19.0699 7.49492L18.9849 7.5H5.00016C4.87282 7.49979 4.75034 7.451 4.65774 7.36358C4.56507 7.27609 4.50931 7.15652 4.50184 7.0293C4.49437 6.90208 4.53576 6.77681 4.61756 6.67908C4.69675 6.58447 4.80803 6.52258 4.92988 6.50508L5.01481 6.5H18.9995Z" fill="#141416" stroke="#141416"/>
</svg>
