<svg width="96" height="16" viewBox="0 0 96 16" fill="none" xmlns="http://www.w3.org/2000/svg">
<path d="M12.7334 9.45476C12.5263 9.65554 12.4311 9.9459 12.4783 10.2307L13.1894 14.1661C13.2494 14.4997 13.1086 14.8373 12.8294 15.03C12.5559 15.23 12.1919 15.254 11.8935 15.094L8.35081 13.2463C8.22762 13.1807 8.09084 13.1455 7.95086 13.1415H7.73409C7.6589 13.1527 7.58531 13.1767 7.51812 13.2135L3.97458 15.07C3.7994 15.158 3.60103 15.1892 3.40666 15.158C2.93312 15.0684 2.61716 14.6173 2.69475 14.1414L3.40666 10.2059C3.45385 9.9187 3.35866 9.62674 3.15149 9.42277L0.263066 6.62313C0.0214978 6.38876 -0.0624912 6.03681 0.0478944 5.71925C0.15508 5.40249 0.428645 5.17132 0.759001 5.11933L4.73448 4.54261C5.03684 4.51141 5.30241 4.32743 5.43839 4.05547L7.19016 0.463939C7.23176 0.38395 7.28535 0.310359 7.35014 0.247968L7.42213 0.191975C7.45973 0.15038 7.50292 0.115985 7.55091 0.0879885L7.6381 0.0559927L7.77408 0H8.11084C8.4116 0.0311959 8.67637 0.211172 8.81475 0.479937L10.5897 4.05547C10.7177 4.31704 10.9665 4.49861 11.2536 4.54261L15.2291 5.11933C15.5651 5.16733 15.8458 5.39929 15.957 5.71925C16.0618 6.04001 15.9714 6.39196 15.725 6.62313L12.7334 9.45476Z" fill="#FABE3C"/>
<path d="M32.7334 9.45476C32.5263 9.65554 32.4311 9.9459 32.4783 10.2307L33.1894 14.1661C33.2494 14.4997 33.1086 14.8373 32.8294 15.03C32.5559 15.23 32.1919 15.254 31.8935 15.094L28.3508 13.2463C28.2276 13.1807 28.0908 13.1455 27.9509 13.1415H27.7341C27.6589 13.1527 27.5853 13.1767 27.5181 13.2135L23.9746 15.07C23.7994 15.158 23.601 15.1892 23.4067 15.158C22.9331 15.0684 22.6172 14.6173 22.6947 14.1414L23.4067 10.2059C23.4538 9.9187 23.3587 9.62674 23.1515 9.42277L20.2631 6.62313C20.0215 6.38876 19.9375 6.03681 20.0479 5.71925C20.1551 5.40249 20.4286 5.17132 20.759 5.11933L24.7345 4.54261C25.0368 4.51141 25.3024 4.32743 25.4384 4.05547L27.1902 0.463939C27.2318 0.38395 27.2853 0.310359 27.3501 0.247968L27.4221 0.191975C27.4597 0.15038 27.5029 0.115985 27.5509 0.0879885L27.6381 0.0559927L27.7741 0H28.1108C28.4116 0.0311959 28.6764 0.211172 28.8147 0.479937L30.5897 4.05547C30.7177 4.31704 30.9665 4.49861 31.2536 4.54261L35.2291 5.11933C35.5651 5.16733 35.8458 5.39929 35.957 5.71925C36.0618 6.04001 35.9714 6.39196 35.725 6.62313L32.7334 9.45476Z" fill="#FABE3C"/>
<path d="M52.7334 9.45476C52.5263 9.65554 52.4311 9.9459 52.4783 10.2307L53.1894 14.1661C53.2494 14.4997 53.1086 14.8373 52.8294 15.03C52.5559 15.23 52.1919 15.254 51.8935 15.094L48.3508 13.2463C48.2276 13.1807 48.0908 13.1455 47.9509 13.1415H47.7341C47.6589 13.1527 47.5853 13.1767 47.5181 13.2135L43.9746 15.07C43.7994 15.158 43.601 15.1892 43.4067 15.158C42.9331 15.0684 42.6172 14.6173 42.6947 14.1414L43.4067 10.2059C43.4538 9.9187 43.3587 9.62674 43.1515 9.42277L40.2631 6.62313C40.0215 6.38876 39.9375 6.03681 40.0479 5.71925C40.1551 5.40249 40.4286 5.17132 40.759 5.11933L44.7345 4.54261C45.0368 4.51141 45.3024 4.32743 45.4384 4.05547L47.1902 0.463939C47.2318 0.38395 47.2853 0.310359 47.3501 0.247968L47.4221 0.191975C47.4597 0.15038 47.5029 0.115985 47.5509 0.0879885L47.6381 0.0559927L47.7741 0H48.1108C48.4116 0.0311959 48.6764 0.211172 48.8147 0.479937L50.5897 4.05547C50.7177 4.31704 50.9665 4.49861 51.2536 4.54261L55.2291 5.11933C55.5651 5.16733 55.8458 5.39929 55.957 5.71925C56.0618 6.04001 55.9714 6.39196 55.725 6.62313L52.7334 9.45476Z" fill="#FABE3C"/>
<path d="M72.7334 9.45476C72.5263 9.65554 72.4311 9.9459 72.4783 10.2307L73.1894 14.1661C73.2494 14.4997 73.1086 14.8373 72.8294 15.03C72.5559 15.23 72.1919 15.254 71.8935 15.094L68.3508 13.2463C68.2276 13.1807 68.0908 13.1455 67.9509 13.1415H67.7341C67.6589 13.1527 67.5853 13.1767 67.5181 13.2135L63.9746 15.07C63.7994 15.158 63.601 15.1892 63.4067 15.158C62.9331 15.0684 62.6172 14.6173 62.6947 14.1414L63.4067 10.2059C63.4538 9.9187 63.3587 9.62674 63.1515 9.42277L60.2631 6.62313C60.0215 6.38876 59.9375 6.03681 60.0479 5.71925C60.1551 5.40249 60.4286 5.17132 60.759 5.11933L64.7345 4.54261C65.0368 4.51141 65.3024 4.32743 65.4384 4.05547L67.1902 0.463939C67.2318 0.38395 67.2853 0.310359 67.3501 0.247968L67.4221 0.191975C67.4597 0.15038 67.5029 0.115985 67.5509 0.0879885L67.6381 0.0559927L67.7741 0H68.1108C68.4116 0.0311959 68.6764 0.211172 68.8147 0.479937L70.5897 4.05547C70.7177 4.31704 70.9665 4.49861 71.2536 4.54261L75.2291 5.11933C75.5651 5.16733 75.8458 5.39929 75.957 5.71925C76.0618 6.04001 75.9714 6.39196 75.725 6.62313L72.7334 9.45476Z" fill="#FABE3C"/>
<path d="M92.7334 9.45476C92.5263 9.65554 92.4311 9.9459 92.4783 10.2307L93.1894 14.1661C93.2494 14.4997 93.1086 14.8373 92.8294 15.03C92.5559 15.23 92.1919 15.254 91.8935 15.094L88.3508 13.2463C88.2276 13.1807 88.0908 13.1455 87.9509 13.1415H87.7341C87.6589 13.1527 87.5853 13.1767 87.5181 13.2135L83.9746 15.07C83.7994 15.158 83.601 15.1892 83.4067 15.158C82.9331 15.0684 82.6172 14.6173 82.6947 14.1414L83.4067 10.2059C83.4538 9.9187 83.3587 9.62674 83.1515 9.42277L80.2631 6.62313C80.0215 6.38876 79.9375 6.03681 80.0479 5.71925C80.1551 5.40249 80.4286 5.17132 80.759 5.11933L84.7345 4.54261C85.0368 4.51141 85.3024 4.32743 85.4384 4.05547L87.1902 0.463939C87.2318 0.38395 87.2853 0.310359 87.3501 0.247968L87.4221 0.191975C87.4597 0.15038 87.5029 0.115985 87.5509 0.0879885L87.6381 0.0559927L87.7741 0H88.1108C88.4116 0.0311959 88.6764 0.211172 88.8147 0.479937L90.5897 4.05547C90.7177 4.31704 90.9665 4.49861 91.2536 4.54261L95.2291 5.11933C95.5651 5.16733 95.8458 5.39929 95.957 5.71925C96.0618 6.04001 95.9714 6.39196 95.725 6.62313L92.7334 9.45476Z" fill="#FABE3C"/>
</svg>
