<svg width="20" height="20" viewBox="0 0 20 20" fill="none" xmlns="http://www.w3.org/2000/svg">
<path d="M6.37481 17.425C6.34981 17.425 6.31647 17.4416 6.29147 17.4416C4.67481 16.6416 3.35814 15.3166 2.5498 13.7C2.5498 13.675 2.56647 13.6416 2.56647 13.6166C3.58314 13.9166 4.63314 14.1416 5.67481 14.3166C5.85814 15.3666 6.07481 16.4083 6.37481 17.425Z" fill="#74778B"/>
<path d="M17.4502 13.7083C16.6252 15.3666 15.2502 16.7083 13.5752 17.5166C13.8919 16.4583 14.1585 15.3916 14.3335 14.3166C15.3835 14.1416 16.4169 13.9166 17.4335 13.6166C17.4252 13.65 17.4502 13.6833 17.4502 13.7083Z" fill="#74778B"/>
<path d="M17.5169 6.425C16.4669 6.10834 15.4085 5.85 14.3335 5.66667C14.1585 4.59167 13.9002 3.525 13.5752 2.48334C15.3002 3.30834 16.6919 4.7 17.5169 6.425Z" fill="#74778B"/>
<path d="M6.37506 2.57499C6.07506 3.59165 5.8584 4.62499 5.6834 5.67499C4.6084 5.84165 3.54173 6.10832 2.4834 6.42499C3.29173 4.74999 4.6334 3.37499 6.29173 2.54999C6.31673 2.54999 6.35006 2.57499 6.37506 2.57499Z" fill="#74778B"/>
<path d="M12.9085 5.49169C10.9751 5.27502 9.02513 5.27502 7.0918 5.49169C7.30013 4.35002 7.5668 3.20835 7.9418 2.10835C7.95846 2.04169 7.95013 1.99169 7.95846 1.92502C8.6168 1.76669 9.2918 1.66669 10.0001 1.66669C10.7001 1.66669 11.3835 1.76669 12.0335 1.92502C12.0418 1.99169 12.0418 2.04169 12.0585 2.10835C12.4335 3.21669 12.7001 4.35002 12.9085 5.49169Z" fill="#74778B"/>
<path d="M5.49199 12.9083C4.34199 12.7 3.20866 12.4333 2.10866 12.0583C2.04199 12.0417 1.99199 12.05 1.92533 12.0417C1.76699 11.3833 1.66699 10.7083 1.66699 10C1.66699 9.30001 1.76699 8.61667 1.92533 7.96667C1.99199 7.95834 2.04199 7.95834 2.10866 7.94167C3.21699 7.57501 4.34199 7.30001 5.49199 7.09167C5.28366 9.02501 5.28366 10.975 5.49199 12.9083Z" fill="#74778B"/>
<path d="M18.3338 10C18.3338 10.7083 18.2338 11.3833 18.0755 12.0417C18.0088 12.05 17.9588 12.0417 17.8921 12.0583C16.7838 12.425 15.6505 12.7 14.5088 12.9083C14.7255 10.975 14.7255 9.02501 14.5088 7.09167C15.6505 7.30001 16.7921 7.56667 17.8921 7.94167C17.9588 7.95834 18.0088 7.96667 18.0755 7.96667C18.2338 8.62501 18.3338 9.30001 18.3338 10Z" fill="#74778B"/>
<path d="M12.9085 14.5084C12.7001 15.6584 12.4335 16.7917 12.0585 17.8917C12.0418 17.9584 12.0418 18.0084 12.0335 18.075C11.3835 18.2334 10.7001 18.3334 10.0001 18.3334C9.2918 18.3334 8.6168 18.2334 7.95846 18.075C7.95013 18.0084 7.95846 17.9584 7.9418 17.8917C7.57513 16.7834 7.30013 15.6584 7.0918 14.5084C8.05846 14.6167 9.02513 14.6917 10.0001 14.6917C10.9751 14.6917 11.9501 14.6167 12.9085 14.5084Z" fill="#74778B"/>
<path d="M13.1364 13.1361C11.0522 13.3991 8.94846 13.3991 6.86422 13.1361C6.60125 11.0519 6.60125 8.94816 6.86422 6.86391C8.94846 6.60095 11.0522 6.60095 13.1364 6.86391C13.3994 8.94816 13.3994 11.0519 13.1364 13.1361Z" fill="#74778B"/>
</svg>
