<svg width="24" height="24" viewBox="0 0 24 24" fill="none" xmlns="http://www.w3.org/2000/svg">
<path fill-rule="evenodd" clip-rule="evenodd" d="M20.3081 21H13.6132C13.231 21 12.9209 20.6807 12.9209 20.2872C12.9209 19.8937 13.231 19.5744 13.6132 19.5744H20.3081C20.6902 19.5744 21.0004 19.8937 21.0004 20.2872C21.0004 20.6807 20.6902 21 20.3081 21Z" fill="#1786F9"/>
<mask id="mask0_4149_14137" style="mask-type:luminance" maskUnits="userSpaceOnUse" x="3" y="3" width="16" height="18">
<path fill-rule="evenodd" clip-rule="evenodd" d="M3 3H18.8586V21H3V3Z" fill="white"/>
</mask>
<g mask="url(#mask0_4149_14137)">
<path fill-rule="evenodd" clip-rule="evenodd" d="M13.2554 4.91662L4.56483 16.1075C4.40699 16.3109 4.34883 16.5732 4.40699 16.825L5.03559 19.5669L7.84075 19.5308C8.10751 19.528 8.35397 19.4054 8.51735 19.1963C11.4868 15.3709 17.1479 8.07763 17.3085 7.86379C17.4599 7.61099 17.519 7.25364 17.4396 6.9096C17.3584 6.557 17.1451 6.25763 16.8378 6.0666C16.7722 6.02003 15.2169 4.77691 15.1689 4.73795C14.5837 4.25515 13.7298 4.33878 13.2554 4.91662ZM4.48914 21.0001C4.16884 21.0001 3.89008 20.7739 3.81531 20.4517L3.05933 17.1529C2.90333 16.4696 3.05841 15.7644 3.48393 15.217L12.1791 4.01943C12.1828 4.01563 12.1856 4.01088 12.1893 4.00708C13.1428 2.83334 14.867 2.66037 16.0301 3.62122C16.0762 3.65828 17.6205 4.89379 17.6205 4.89379C18.1817 5.23783 18.6202 5.85274 18.7863 6.58074C18.9516 7.30114 18.8316 8.04434 18.4466 8.67255C18.418 8.71912 18.3931 8.75904 9.59825 20.0877C9.17456 20.6313 8.5395 20.9478 7.85737 20.9564L4.49837 21.0001H4.48914Z" fill="#1786F9"/>
</g>
<path fill-rule="evenodd" clip-rule="evenodd" d="M16.129 11.2539C15.9813 11.2539 15.8336 11.2054 15.7072 11.1066L10.6747 7.12631C10.3719 6.88682 10.3147 6.44013 10.5473 6.1265C10.7808 5.81477 11.2147 5.7568 11.5184 5.9963L16.5518 9.97559C16.8545 10.2151 16.9118 10.6627 16.6782 10.9754C16.5425 11.1579 16.3367 11.2539 16.129 11.2539Z" fill="#1786F9"/>
</svg>
