<svg width="14" height="14" viewBox="0 0 14 14" fill="none" xmlns="http://www.w3.org/2000/svg">
<path d="M10.3006 9.71678L7.82549 12.1919C7.60673 12.4104 7.31016 12.5332 7.00094 12.5332C6.69173 12.5332 6.39516 12.4104 6.1764 12.1919L3.70074 9.71678C3.04812 9.06412 2.60368 8.2326 2.42364 7.32737C2.24359 6.42213 2.33602 5.48383 2.68924 4.63112C3.04245 3.77841 3.64059 3.04959 4.40802 2.53682C5.17544 2.02406 6.07768 1.75037 7.00065 1.75037C7.92362 1.75037 8.82586 2.02406 9.59329 2.53682C10.3607 3.04959 10.9589 3.77841 11.3121 4.63112C11.6653 5.48383 11.7577 6.42213 11.5777 7.32737C11.3976 8.2326 10.9532 9.06412 10.3006 9.71678Z" fill="#1786F9" stroke="#1786F9" stroke-width="1.98491" stroke-linecap="round" stroke-linejoin="round"/>
<path d="M7 8.16653C7.9665 8.16653 8.75 7.38303 8.75 6.41653C8.75 5.45004 7.9665 4.66653 7 4.66653C6.0335 4.66653 5.25 5.45004 5.25 6.41653C5.25 7.38303 6.0335 8.16653 7 8.16653Z" fill="#EEEFF2"/>
</svg>
